<?xml version="1.0" encoding="utf-8" standalone="no"?>
<!DOCTYPE svg PUBLIC "-//W3C//DTD SVG 1.1//EN" 
"http://www.w3.org/Graphics/SVG/1.1/DTD/svg11.dtd">
<svg width="516px" height="470px" viewBox="0 0 516 470"
xmlns="http://www.w3.org/2000/svg" version="1.1">
<rect x="0" y="0" width="516" height="470" fill="none" stroke="rgb(192,192,192)" stroke-width="1"/>
<text x="338" y="466" font-family="Times New Roman" font-size="12" fill="rgb(0,0,0)" textLength="86.01">SHFVkrc2_RC14</text>
<text x="362" y="450" font-family="Times New Roman" font-size="12" fill="rgb(0,0,0)" textLength="86.01">SHFVkrc2_RC60</text>
<text x="341" y="434" font-family="Times New Roman" font-size="12" fill="rgb(0,0,0)" textLength="86.01">SHFVkrc2_RC26</text>
<text x="351" y="418" font-family="Times New Roman" font-size="12" fill="rgb(0,0,0)" textLength="86.01">SHFVkrc2_RC61</text>
<text x="330" y="402" font-family="Times New Roman" font-size="12" fill="rgb(0,0,0)" textLength="86.01">SHFVkrc2_RC10</text>
<text x="342" y="386" font-family="Times New Roman" font-size="12" fill="rgb(0,0,0)" textLength="86.01">SHFVkrc2_RC18</text>
<text x="352" y="370" font-family="Times New Roman" font-size="12" fill="rgb(0,0,0)" textLength="86.01">SHFVkrc2_RC15</text>
<text x="403" y="354" font-family="Times New Roman" font-size="12" fill="rgb(0,0,0)" textLength="86.01">SHFVkrc2_RC13</text>
<text x="286" y="338" font-family="Times New Roman" font-size="12" fill="rgb(0,0,0)" textLength="86.01">SHFVkrc2_RC51</text>
<text x="291" y="322" font-family="Times New Roman" font-size="12" fill="rgb(0,0,0)" textLength="86.01">SHFVkrc2_RC05</text>
<text x="301" y="306" font-family="Times New Roman" font-size="12" fill="rgb(0,0,0)" textLength="86.01">SHFVkrc2_RC56</text>
<text x="422" y="290" font-family="Times New Roman" font-size="12" fill="rgb(0,0,0)" textLength="86.01">SHFVkrc2_RC01</text>
<text x="343" y="274" font-family="Times New Roman" font-size="12" fill="rgb(0,0,0)" textLength="86.01">SHFVkrc2_RC07</text>
<text x="363" y="257" font-family="Times New Roman" font-size="12" fill="rgb(0,0,0)" textLength="86.01">SHFVkrc2_RC44</text>
<text x="343" y="241" font-family="Times New Roman" font-size="12" fill="rgb(0,0,0)" textLength="86.01">SHFVkrc2_RC08</text>
<text x="317" y="225" font-family="Times New Roman" font-size="12" fill="rgb(0,0,0)" textLength="86.01">SHFVkrc2_RC06</text>
<text x="330" y="209" font-family="Times New Roman" font-size="12" fill="rgb(0,0,0)" textLength="86.01">SHFVkrc2_RC33</text>
<text x="352" y="193" font-family="Times New Roman" font-size="12" fill="rgb(0,0,0)" textLength="86.01">SHFVkrc2_RC40</text>
<text x="342" y="177" font-family="Times New Roman" font-size="12" fill="rgb(0,0,0)" textLength="86.01">SHFVkrc2_RC28</text>
<text x="322" y="161" font-family="Times New Roman" font-size="12" fill="rgb(0,0,0)" textLength="86.01">SHFVkrc2_RC34</text>
<text x="338" y="145" font-family="Times New Roman" font-size="12" fill="rgb(0,0,0)" textLength="86.01">SHFVkrc2_RC20</text>
<text x="331" y="129" font-family="Times New Roman" font-size="12" fill="rgb(0,0,0)" textLength="86.01">SHFVkrc2_RC31</text>
<text x="357" y="113" font-family="Times New Roman" font-size="12" fill="rgb(0,0,0)" textLength="86.01">SHFVkrc2_RC25</text>
<text x="340" y="97" font-family="Times New Roman" font-size="12" fill="rgb(0,0,0)" textLength="86.01">SHFVkrc2_RC22</text>
<text x="362" y="81" font-family="Times New Roman" font-size="12" fill="rgb(0,0,0)" textLength="86.01">SHFVkrc2_RC54</text>
<text x="355" y="65" font-family="Times New Roman" font-size="12" fill="rgb(0,0,0)" textLength="86.01">SHFVkrc2_RC42</text>
<text x="356" y="49" font-family="Times New Roman" font-size="12" fill="rgb(0,0,0)" textLength="86.01">SHFVkrc2_RC39</text>
<text x="360" y="33" font-family="Times New Roman" font-size="12" fill="rgb(0,0,0)" textLength="86.01">SHFVkrc2_RC55</text>
<line x1="315" y1="446" x2="360" y2="446" style="stroke:rgb(0,0,0);stroke-width:1;stroke-linecap:round" />
<line x1="315" y1="429" x2="339" y2="429" style="stroke:rgb(0,0,0);stroke-width:1;stroke-linecap:round" />
<line x1="315" y1="446" x2="315" y2="429" style="stroke:rgb(0,0,0);stroke-width:1;stroke-linecap:round" />
<line x1="305" y1="462" x2="335" y2="462" style="stroke:rgb(0,0,0);stroke-width:1;stroke-linecap:round" />
<line x1="305" y1="438" x2="315" y2="438" style="stroke:rgb(0,0,0);stroke-width:1;stroke-linecap:round" />
<line x1="305" y1="462" x2="305" y2="438" style="stroke:rgb(0,0,0);stroke-width:1;stroke-linecap:round" />
<line x1="323" y1="397" x2="328" y2="397" style="stroke:rgb(0,0,0);stroke-width:1;stroke-linecap:round" />
<line x1="323" y1="381" x2="340" y2="381" style="stroke:rgb(0,0,0);stroke-width:1;stroke-linecap:round" />
<line x1="323" y1="397" x2="323" y2="381" style="stroke:rgb(0,0,0);stroke-width:1;stroke-linecap:round" />
<line x1="317" y1="413" x2="348" y2="413" style="stroke:rgb(0,0,0);stroke-width:1;stroke-linecap:round" />
<line x1="317" y1="389" x2="323" y2="389" style="stroke:rgb(0,0,0);stroke-width:1;stroke-linecap:round" />
<line x1="317" y1="413" x2="317" y2="389" style="stroke:rgb(0,0,0);stroke-width:1;stroke-linecap:round" />
<line x1="290" y1="450" x2="305" y2="450" style="stroke:rgb(0,0,0);stroke-width:1;stroke-linecap:round" />
<line x1="290" y1="401" x2="317" y2="401" style="stroke:rgb(0,0,0);stroke-width:1;stroke-linecap:round" />
<line x1="290" y1="450" x2="290" y2="401" style="stroke:rgb(0,0,0);stroke-width:1;stroke-linecap:round" />
<line x1="142" y1="365" x2="349" y2="365" style="stroke:rgb(0,0,0);stroke-width:1;stroke-linecap:round" />
<line x1="142" y1="349" x2="401" y2="349" style="stroke:rgb(0,0,0);stroke-width:1;stroke-linecap:round" />
<line x1="142" y1="365" x2="142" y2="349" style="stroke:rgb(0,0,0);stroke-width:1;stroke-linecap:round" />
<line x1="277" y1="317" x2="289" y2="317" style="stroke:rgb(0,0,0);stroke-width:1;stroke-linecap:round" />
<line x1="277" y1="301" x2="299" y2="301" style="stroke:rgb(0,0,0);stroke-width:1;stroke-linecap:round" />
<line x1="277" y1="317" x2="277" y2="301" style="stroke:rgb(0,0,0);stroke-width:1;stroke-linecap:round" />
<line x1="274" y1="269" x2="340" y2="269" style="stroke:rgb(0,0,0);stroke-width:1;stroke-linecap:round" />
<line x1="274" y1="253" x2="361" y2="253" style="stroke:rgb(0,0,0);stroke-width:1;stroke-linecap:round" />
<line x1="274" y1="269" x2="274" y2="253" style="stroke:rgb(0,0,0);stroke-width:1;stroke-linecap:round" />
<line x1="260" y1="285" x2="420" y2="285" style="stroke:rgb(0,0,0);stroke-width:1;stroke-linecap:round" />
<line x1="260" y1="261" x2="274" y2="261" style="stroke:rgb(0,0,0);stroke-width:1;stroke-linecap:round" />
<line x1="260" y1="285" x2="260" y2="261" style="stroke:rgb(0,0,0);stroke-width:1;stroke-linecap:round" />
<line x1="316" y1="189" x2="350" y2="189" style="stroke:rgb(0,0,0);stroke-width:1;stroke-linecap:round" />
<line x1="316" y1="173" x2="340" y2="173" style="stroke:rgb(0,0,0);stroke-width:1;stroke-linecap:round" />
<line x1="316" y1="189" x2="316" y2="173" style="stroke:rgb(0,0,0);stroke-width:1;stroke-linecap:round" />
<line x1="309" y1="205" x2="328" y2="205" style="stroke:rgb(0,0,0);stroke-width:1;stroke-linecap:round" />
<line x1="309" y1="181" x2="316" y2="181" style="stroke:rgb(0,0,0);stroke-width:1;stroke-linecap:round" />
<line x1="309" y1="205" x2="309" y2="181" style="stroke:rgb(0,0,0);stroke-width:1;stroke-linecap:round" />
<line x1="301" y1="221" x2="315" y2="221" style="stroke:rgb(0,0,0);stroke-width:1;stroke-linecap:round" />
<line x1="301" y1="193" x2="309" y2="193" style="stroke:rgb(0,0,0);stroke-width:1;stroke-linecap:round" />
<line x1="301" y1="221" x2="301" y2="193" style="stroke:rgb(0,0,0);stroke-width:1;stroke-linecap:round" />
<line x1="267" y1="237" x2="340" y2="237" style="stroke:rgb(0,0,0);stroke-width:1;stroke-linecap:round" />
<line x1="267" y1="207" x2="301" y2="207" style="stroke:rgb(0,0,0);stroke-width:1;stroke-linecap:round" />
<line x1="267" y1="237" x2="267" y2="207" style="stroke:rgb(0,0,0);stroke-width:1;stroke-linecap:round" />
<line x1="317" y1="140" x2="335" y2="140" style="stroke:rgb(0,0,0);stroke-width:1;stroke-linecap:round" />
<line x1="317" y1="124" x2="328" y2="124" style="stroke:rgb(0,0,0);stroke-width:1;stroke-linecap:round" />
<line x1="317" y1="140" x2="317" y2="124" style="stroke:rgb(0,0,0);stroke-width:1;stroke-linecap:round" />
<line x1="333" y1="92" x2="338" y2="92" style="stroke:rgb(0,0,0);stroke-width:1;stroke-linecap:round" />
<line x1="333" y1="76" x2="360" y2="76" style="stroke:rgb(0,0,0);stroke-width:1;stroke-linecap:round" />
<line x1="333" y1="92" x2="333" y2="76" style="stroke:rgb(0,0,0);stroke-width:1;stroke-linecap:round" />
<line x1="324" y1="108" x2="355" y2="108" style="stroke:rgb(0,0,0);stroke-width:1;stroke-linecap:round" />
<line x1="324" y1="84" x2="333" y2="84" style="stroke:rgb(0,0,0);stroke-width:1;stroke-linecap:round" />
<line x1="324" y1="108" x2="324" y2="84" style="stroke:rgb(0,0,0);stroke-width:1;stroke-linecap:round" />
<line x1="348" y1="44" x2="354" y2="44" style="stroke:rgb(0,0,0);stroke-width:1;stroke-linecap:round" />
<line x1="348" y1="28" x2="358" y2="28" style="stroke:rgb(0,0,0);stroke-width:1;stroke-linecap:round" />
<line x1="348" y1="44" x2="348" y2="28" style="stroke:rgb(0,0,0);stroke-width:1;stroke-linecap:round" />
<line x1="327" y1="60" x2="353" y2="60" style="stroke:rgb(0,0,0);stroke-width:1;stroke-linecap:round" />
<line x1="327" y1="36" x2="348" y2="36" style="stroke:rgb(0,0,0);stroke-width:1;stroke-linecap:round" />
<line x1="327" y1="60" x2="327" y2="36" style="stroke:rgb(0,0,0);stroke-width:1;stroke-linecap:round" />
<line x1="315" y1="96" x2="324" y2="96" style="stroke:rgb(0,0,0);stroke-width:1;stroke-linecap:round" />
<line x1="315" y1="48" x2="327" y2="48" style="stroke:rgb(0,0,0);stroke-width:1;stroke-linecap:round" />
<line x1="315" y1="96" x2="315" y2="48" style="stroke:rgb(0,0,0);stroke-width:1;stroke-linecap:round" />
<line x1="305" y1="132" x2="317" y2="132" style="stroke:rgb(0,0,0);stroke-width:1;stroke-linecap:round" />
<line x1="305" y1="72" x2="315" y2="72" style="stroke:rgb(0,0,0);stroke-width:1;stroke-linecap:round" />
<line x1="305" y1="132" x2="305" y2="72" style="stroke:rgb(0,0,0);stroke-width:1;stroke-linecap:round" />
<line x1="297" y1="156" x2="320" y2="156" style="stroke:rgb(0,0,0);stroke-width:1;stroke-linecap:round" />
<line x1="297" y1="102" x2="305" y2="102" style="stroke:rgb(0,0,0);stroke-width:1;stroke-linecap:round" />
<line x1="297" y1="156" x2="297" y2="102" style="stroke:rgb(0,0,0);stroke-width:1;stroke-linecap:round" />
<line x1="256" y1="222" x2="267" y2="222" style="stroke:rgb(0,0,0);stroke-width:1;stroke-linecap:round" />
<line x1="256" y1="129" x2="297" y2="129" style="stroke:rgb(0,0,0);stroke-width:1;stroke-linecap:round" />
<line x1="256" y1="222" x2="256" y2="129" style="stroke:rgb(0,0,0);stroke-width:1;stroke-linecap:round" />
<line x1="248" y1="273" x2="260" y2="273" style="stroke:rgb(0,0,0);stroke-width:1;stroke-linecap:round" />
<line x1="248" y1="176" x2="256" y2="176" style="stroke:rgb(0,0,0);stroke-width:1;stroke-linecap:round" />
<line x1="248" y1="273" x2="248" y2="176" style="stroke:rgb(0,0,0);stroke-width:1;stroke-linecap:round" />
<line x1="233" y1="309" x2="277" y2="309" style="stroke:rgb(0,0,0);stroke-width:1;stroke-linecap:round" />
<line x1="233" y1="224" x2="248" y2="224" style="stroke:rgb(0,0,0);stroke-width:1;stroke-linecap:round" />
<line x1="233" y1="309" x2="233" y2="224" style="stroke:rgb(0,0,0);stroke-width:1;stroke-linecap:round" />
<line x1="178" y1="333" x2="283" y2="333" style="stroke:rgb(0,0,0);stroke-width:1;stroke-linecap:round" />
<line x1="178" y1="267" x2="233" y2="267" style="stroke:rgb(0,0,0);stroke-width:1;stroke-linecap:round" />
<line x1="178" y1="333" x2="178" y2="267" style="stroke:rgb(0,0,0);stroke-width:1;stroke-linecap:round" />
<line x1="111" y1="357" x2="142" y2="357" style="stroke:rgb(0,0,0);stroke-width:1;stroke-linecap:round" />
<line x1="111" y1="300" x2="178" y2="300" style="stroke:rgb(0,0,0);stroke-width:1;stroke-linecap:round" />
<line x1="111" y1="357" x2="111" y2="300" style="stroke:rgb(0,0,0);stroke-width:1;stroke-linecap:round" />
<line x1="10" y1="425" x2="290" y2="425" style="stroke:rgb(0,0,0);stroke-width:1;stroke-linecap:round" />
<line x1="10" y1="329" x2="111" y2="329" style="stroke:rgb(0,0,0);stroke-width:1;stroke-linecap:round" />
<line x1="10" y1="425" x2="10" y2="329" style="stroke:rgb(0,0,0);stroke-width:1;stroke-linecap:round" />
<line x1="422" y1="13" x2="490" y2="13" style="stroke:rgb(0,0,0);stroke-width:1;stroke-linecap:round" />
<line x1="422" y1="17" x2="422" y2="9" style="stroke:rgb(0,0,0);stroke-width:1;stroke-linecap:round" />
<line x1="490" y1="17" x2="490" y2="9" style="stroke:rgb(0,0,0);stroke-width:1;stroke-linecap:round" />
<text x="446" y="11" font-family="Times New Roman" font-size="12" fill="rgb(0,0,0)" textLength="21.00">0.02</text>
</svg>
