<?xml version="1.0" encoding="utf-8" standalone="no"?>
<!DOCTYPE svg PUBLIC "-//W3C//DTD SVG 1.1//EN" 
"http://www.w3.org/Graphics/SVG/1.1/DTD/svg11.dtd">
<svg width="516px" height="470px" viewBox="0 0 516 470"
xmlns="http://www.w3.org/2000/svg" version="1.1">
<rect x="0" y="0" width="516" height="470" fill="none" stroke="rgb(192,192,192)" stroke-width="1"/>
<text x="366" y="466" font-family="Times New Roman" font-size="12" fill="rgb(0,0,0)" textLength="86.01">SHFVkrc1_RC61</text>
<text x="422" y="447" font-family="Times New Roman" font-size="12" fill="rgb(0,0,0)" textLength="86.01">SHFVkrc1_RC13</text>
<text x="269" y="429" font-family="Times New Roman" font-size="12" fill="rgb(0,0,0)" textLength="86.01">SHFVkrc1_RC51</text>
<text x="317" y="410" font-family="Times New Roman" font-size="12" fill="rgb(0,0,0)" textLength="86.01">SHFVkrc1_RC60</text>
<text x="321" y="391" font-family="Times New Roman" font-size="12" fill="rgb(0,0,0)" textLength="86.01">SHFVkrc1_RC07</text>
<text x="326" y="372" font-family="Times New Roman" font-size="12" fill="rgb(0,0,0)" textLength="86.01">SHFVkrc1_RC09</text>
<text x="338" y="353" font-family="Times New Roman" font-size="12" fill="rgb(0,0,0)" textLength="86.01">SHFVkrc1_RC30</text>
<text x="311" y="334" font-family="Times New Roman" font-size="12" fill="rgb(0,0,0)" textLength="86.01">SHFVkrc1_RC10</text>
<text x="316" y="315" font-family="Times New Roman" font-size="12" fill="rgb(0,0,0)" textLength="86.01">SHFVkrc1_RC18</text>
<text x="277" y="297" font-family="Times New Roman" font-size="12" fill="rgb(0,0,0)" textLength="86.01">SHFVkrc1_RC01</text>
<text x="316" y="278" font-family="Times New Roman" font-size="12" fill="rgb(0,0,0)" textLength="86.01">SHFVkrc1_RC56</text>
<text x="322" y="259" font-family="Times New Roman" font-size="12" fill="rgb(0,0,0)" textLength="86.01">SHFVkrc1_RC44</text>
<text x="303" y="240" font-family="Times New Roman" font-size="12" fill="rgb(0,0,0)" textLength="86.01">SHFVkrc1_RC05</text>
<text x="321" y="221" font-family="Times New Roman" font-size="12" fill="rgb(0,0,0)" textLength="86.01">SHFVkrc1_RC08</text>
<text x="323" y="202" font-family="Times New Roman" font-size="12" fill="rgb(0,0,0)" textLength="86.01">SHFVkrc1_RC45</text>
<text x="338" y="183" font-family="Times New Roman" font-size="12" fill="rgb(0,0,0)" textLength="86.01">SHFVkrc1_RC34</text>
<text x="348" y="165" font-family="Times New Roman" font-size="12" fill="rgb(0,0,0)" textLength="86.01">SHFVkrc1_RC25</text>
<text x="343" y="146" font-family="Times New Roman" font-size="12" fill="rgb(0,0,0)" textLength="86.01">SHFVkrc1_RC22</text>
<text x="356" y="127" font-family="Times New Roman" font-size="12" fill="rgb(0,0,0)" textLength="86.01">SHFVkrc1_RC54</text>
<text x="326" y="108" font-family="Times New Roman" font-size="12" fill="rgb(0,0,0)" textLength="86.01">SHFVkrc1_RC06</text>
<text x="347" y="89" font-family="Times New Roman" font-size="12" fill="rgb(0,0,0)" textLength="86.01">SHFVkrc1_RC31</text>
<text x="355" y="70" font-family="Times New Roman" font-size="12" fill="rgb(0,0,0)" textLength="86.01">SHFVkrc1_RC40</text>
<text x="358" y="52" font-family="Times New Roman" font-size="12" fill="rgb(0,0,0)" textLength="86.01">SHFVkrc1_RC28</text>
<text x="348" y="33" font-family="Times New Roman" font-size="12" fill="rgb(0,0,0)" textLength="86.01">SHFVkrc1_RC33</text>
<line x1="113" y1="462" x2="364" y2="462" style="stroke:rgb(0,0,0);stroke-width:1;stroke-linecap:round" />
<line x1="113" y1="443" x2="420" y2="443" style="stroke:rgb(0,0,0);stroke-width:1;stroke-linecap:round" />
<line x1="113" y1="462" x2="113" y2="443" style="stroke:rgb(0,0,0);stroke-width:1;stroke-linecap:round" />
<line x1="272" y1="367" x2="324" y2="367" style="stroke:rgb(0,0,0);stroke-width:1;stroke-linecap:round" />
<line x1="272" y1="348" x2="335" y2="348" style="stroke:rgb(0,0,0);stroke-width:1;stroke-linecap:round" />
<line x1="272" y1="367" x2="272" y2="348" style="stroke:rgb(0,0,0);stroke-width:1;stroke-linecap:round" />
<line x1="304" y1="330" x2="309" y2="330" style="stroke:rgb(0,0,0);stroke-width:1;stroke-linecap:round" />
<line x1="304" y1="311" x2="314" y2="311" style="stroke:rgb(0,0,0);stroke-width:1;stroke-linecap:round" />
<line x1="304" y1="330" x2="304" y2="311" style="stroke:rgb(0,0,0);stroke-width:1;stroke-linecap:round" />
<line x1="243" y1="358" x2="272" y2="358" style="stroke:rgb(0,0,0);stroke-width:1;stroke-linecap:round" />
<line x1="243" y1="320" x2="304" y2="320" style="stroke:rgb(0,0,0);stroke-width:1;stroke-linecap:round" />
<line x1="243" y1="358" x2="243" y2="320" style="stroke:rgb(0,0,0);stroke-width:1;stroke-linecap:round" />
<line x1="200" y1="386" x2="319" y2="386" style="stroke:rgb(0,0,0);stroke-width:1;stroke-linecap:round" />
<line x1="200" y1="339" x2="243" y2="339" style="stroke:rgb(0,0,0);stroke-width:1;stroke-linecap:round" />
<line x1="200" y1="386" x2="200" y2="339" style="stroke:rgb(0,0,0);stroke-width:1;stroke-linecap:round" />
<line x1="165" y1="405" x2="315" y2="405" style="stroke:rgb(0,0,0);stroke-width:1;stroke-linecap:round" />
<line x1="165" y1="363" x2="200" y2="363" style="stroke:rgb(0,0,0);stroke-width:1;stroke-linecap:round" />
<line x1="165" y1="405" x2="165" y2="363" style="stroke:rgb(0,0,0);stroke-width:1;stroke-linecap:round" />
<line x1="131" y1="424" x2="267" y2="424" style="stroke:rgb(0,0,0);stroke-width:1;stroke-linecap:round" />
<line x1="131" y1="384" x2="165" y2="384" style="stroke:rgb(0,0,0);stroke-width:1;stroke-linecap:round" />
<line x1="131" y1="424" x2="131" y2="384" style="stroke:rgb(0,0,0);stroke-width:1;stroke-linecap:round" />
<line x1="32" y1="452" x2="113" y2="452" style="stroke:rgb(0,0,0);stroke-width:1;stroke-linecap:round" />
<line x1="32" y1="404" x2="131" y2="404" style="stroke:rgb(0,0,0);stroke-width:1;stroke-linecap:round" />
<line x1="32" y1="452" x2="32" y2="404" style="stroke:rgb(0,0,0);stroke-width:1;stroke-linecap:round" />
<line x1="288" y1="254" x2="320" y2="254" style="stroke:rgb(0,0,0);stroke-width:1;stroke-linecap:round" />
<line x1="288" y1="235" x2="301" y2="235" style="stroke:rgb(0,0,0);stroke-width:1;stroke-linecap:round" />
<line x1="288" y1="254" x2="288" y2="235" style="stroke:rgb(0,0,0);stroke-width:1;stroke-linecap:round" />
<line x1="280" y1="273" x2="313" y2="273" style="stroke:rgb(0,0,0);stroke-width:1;stroke-linecap:round" />
<line x1="280" y1="245" x2="288" y2="245" style="stroke:rgb(0,0,0);stroke-width:1;stroke-linecap:round" />
<line x1="280" y1="273" x2="280" y2="245" style="stroke:rgb(0,0,0);stroke-width:1;stroke-linecap:round" />
<line x1="269" y1="217" x2="319" y2="217" style="stroke:rgb(0,0,0);stroke-width:1;stroke-linecap:round" />
<line x1="269" y1="198" x2="321" y2="198" style="stroke:rgb(0,0,0);stroke-width:1;stroke-linecap:round" />
<line x1="269" y1="217" x2="269" y2="198" style="stroke:rgb(0,0,0);stroke-width:1;stroke-linecap:round" />
<line x1="338" y1="141" x2="341" y2="141" style="stroke:rgb(0,0,0);stroke-width:1;stroke-linecap:round" />
<line x1="338" y1="122" x2="354" y2="122" style="stroke:rgb(0,0,0);stroke-width:1;stroke-linecap:round" />
<line x1="338" y1="141" x2="338" y2="122" style="stroke:rgb(0,0,0);stroke-width:1;stroke-linecap:round" />
<line x1="333" y1="160" x2="346" y2="160" style="stroke:rgb(0,0,0);stroke-width:1;stroke-linecap:round" />
<line x1="333" y1="132" x2="338" y2="132" style="stroke:rgb(0,0,0);stroke-width:1;stroke-linecap:round" />
<line x1="333" y1="160" x2="333" y2="132" style="stroke:rgb(0,0,0);stroke-width:1;stroke-linecap:round" />
<line x1="325" y1="179" x2="335" y2="179" style="stroke:rgb(0,0,0);stroke-width:1;stroke-linecap:round" />
<line x1="325" y1="146" x2="333" y2="146" style="stroke:rgb(0,0,0);stroke-width:1;stroke-linecap:round" />
<line x1="325" y1="179" x2="325" y2="146" style="stroke:rgb(0,0,0);stroke-width:1;stroke-linecap:round" />
<line x1="337" y1="47" x2="356" y2="47" style="stroke:rgb(0,0,0);stroke-width:1;stroke-linecap:round" />
<line x1="337" y1="28" x2="346" y2="28" style="stroke:rgb(0,0,0);stroke-width:1;stroke-linecap:round" />
<line x1="337" y1="47" x2="337" y2="28" style="stroke:rgb(0,0,0);stroke-width:1;stroke-linecap:round" />
<line x1="329" y1="66" x2="352" y2="66" style="stroke:rgb(0,0,0);stroke-width:1;stroke-linecap:round" />
<line x1="329" y1="37" x2="337" y2="37" style="stroke:rgb(0,0,0);stroke-width:1;stroke-linecap:round" />
<line x1="329" y1="66" x2="329" y2="37" style="stroke:rgb(0,0,0);stroke-width:1;stroke-linecap:round" />
<line x1="326" y1="85" x2="345" y2="85" style="stroke:rgb(0,0,0);stroke-width:1;stroke-linecap:round" />
<line x1="326" y1="52" x2="329" y2="52" style="stroke:rgb(0,0,0);stroke-width:1;stroke-linecap:round" />
<line x1="326" y1="85" x2="326" y2="52" style="stroke:rgb(0,0,0);stroke-width:1;stroke-linecap:round" />
<line x1="317" y1="103" x2="324" y2="103" style="stroke:rgb(0,0,0);stroke-width:1;stroke-linecap:round" />
<line x1="317" y1="68" x2="326" y2="68" style="stroke:rgb(0,0,0);stroke-width:1;stroke-linecap:round" />
<line x1="317" y1="103" x2="317" y2="68" style="stroke:rgb(0,0,0);stroke-width:1;stroke-linecap:round" />
<line x1="314" y1="162" x2="325" y2="162" style="stroke:rgb(0,0,0);stroke-width:1;stroke-linecap:round" />
<line x1="314" y1="86" x2="317" y2="86" style="stroke:rgb(0,0,0);stroke-width:1;stroke-linecap:round" />
<line x1="314" y1="162" x2="314" y2="86" style="stroke:rgb(0,0,0);stroke-width:1;stroke-linecap:round" />
<line x1="257" y1="207" x2="269" y2="207" style="stroke:rgb(0,0,0);stroke-width:1;stroke-linecap:round" />
<line x1="257" y1="124" x2="314" y2="124" style="stroke:rgb(0,0,0);stroke-width:1;stroke-linecap:round" />
<line x1="257" y1="207" x2="257" y2="124" style="stroke:rgb(0,0,0);stroke-width:1;stroke-linecap:round" />
<line x1="247" y1="259" x2="280" y2="259" style="stroke:rgb(0,0,0);stroke-width:1;stroke-linecap:round" />
<line x1="247" y1="166" x2="257" y2="166" style="stroke:rgb(0,0,0);stroke-width:1;stroke-linecap:round" />
<line x1="247" y1="259" x2="247" y2="166" style="stroke:rgb(0,0,0);stroke-width:1;stroke-linecap:round" />
<line x1="204" y1="292" x2="274" y2="292" style="stroke:rgb(0,0,0);stroke-width:1;stroke-linecap:round" />
<line x1="204" y1="212" x2="247" y2="212" style="stroke:rgb(0,0,0);stroke-width:1;stroke-linecap:round" />
<line x1="204" y1="292" x2="204" y2="212" style="stroke:rgb(0,0,0);stroke-width:1;stroke-linecap:round" />
<line x1="10" y1="428" x2="32" y2="428" style="stroke:rgb(0,0,0);stroke-width:1;stroke-linecap:round" />
<line x1="10" y1="252" x2="204" y2="252" style="stroke:rgb(0,0,0);stroke-width:1;stroke-linecap:round" />
<line x1="10" y1="428" x2="10" y2="252" style="stroke:rgb(0,0,0);stroke-width:1;stroke-linecap:round" />
<line x1="438" y1="13" x2="490" y2="13" style="stroke:rgb(0,0,0);stroke-width:1;stroke-linecap:round" />
<line x1="438" y1="17" x2="438" y2="9" style="stroke:rgb(0,0,0);stroke-width:1;stroke-linecap:round" />
<line x1="490" y1="17" x2="490" y2="9" style="stroke:rgb(0,0,0);stroke-width:1;stroke-linecap:round" />
<text x="454" y="11" font-family="Times New Roman" font-size="12" fill="rgb(0,0,0)" textLength="21.00">0.02</text>
</svg>
