<?xml version="1.0" encoding="utf-8" standalone="no"?>
<!DOCTYPE svg PUBLIC "-//W3C//DTD SVG 1.1//EN" 
"http://www.w3.org/Graphics/SVG/1.1/DTD/svg11.dtd">
<svg width="516px" height="470px" viewBox="0 0 516 470"
xmlns="http://www.w3.org/2000/svg" version="1.1">
<rect x="0" y="0" width="516" height="470" fill="none" stroke="rgb(192,192,192)" stroke-width="1"/>
<text x="239" y="466" font-family="Times New Roman" font-size="12" fill="rgb(0,0,0)" textLength="75.98">SIVkrc_51_gag</text>
<text x="257" y="437" font-family="Times New Roman" font-size="12" fill="rgb(0,0,0)" textLength="75.98">SIVkrc_14_gag</text>
<text x="433" y="408" font-family="Times New Roman" font-size="12" fill="rgb(0,0,0)" textLength="75.98">SIVkrc_43_gag</text>
<text x="421" y="380" font-family="Times New Roman" font-size="12" fill="rgb(0,0,0)" textLength="75.98">SIVkrc_60_gag</text>
<text x="432" y="351" font-family="Times New Roman" font-size="12" fill="rgb(0,0,0)" textLength="75.98">SIVkrc_61_gag</text>
<text x="396" y="322" font-family="Times New Roman" font-size="12" fill="rgb(0,0,0)" textLength="75.98">SIVkrc_10_gag</text>
<text x="332" y="293" font-family="Times New Roman" font-size="12" fill="rgb(0,0,0)" textLength="75.98">SIVkrc_18_gag</text>
<text x="252" y="264" font-family="Times New Roman" font-size="12" fill="rgb(0,0,0)" textLength="75.98">SIVkrc_01_gag</text>
<text x="248" y="235" font-family="Times New Roman" font-size="12" fill="rgb(0,0,0)" textLength="75.98">SIVkrc_05_gag</text>
<text x="299" y="206" font-family="Times New Roman" font-size="12" fill="rgb(0,0,0)" textLength="75.98">SIVkrc_13_gag</text>
<text x="323" y="177" font-family="Times New Roman" font-size="12" fill="rgb(0,0,0)" textLength="75.98">SIVkrc_30_gag</text>
<text x="317" y="148" font-family="Times New Roman" font-size="12" fill="rgb(0,0,0)" textLength="75.98">SIVkrc_44_gag</text>
<text x="327" y="119" font-family="Times New Roman" font-size="12" fill="rgb(0,0,0)" textLength="75.98">SIVkrc_07_gag</text>
<text x="330" y="90" font-family="Times New Roman" font-size="12" fill="rgb(0,0,0)" textLength="75.98">SIVkrc_08_gag</text>
<text x="369" y="62" font-family="Times New Roman" font-size="12" fill="rgb(0,0,0)" textLength="75.98">SIVkrc_15_gag</text>
<text x="374" y="33" font-family="Times New Roman" font-size="12" fill="rgb(0,0,0)" textLength="75.98">SIVkrc_50_gag</text>
<line x1="413" y1="375" x2="418" y2="375" style="stroke:rgb(0,0,0);stroke-width:1;stroke-linecap:round" />
<line x1="413" y1="346" x2="430" y2="346" style="stroke:rgb(0,0,0);stroke-width:1;stroke-linecap:round" />
<line x1="413" y1="375" x2="413" y2="346" style="stroke:rgb(0,0,0);stroke-width:1;stroke-linecap:round" />
<line x1="397" y1="404" x2="431" y2="404" style="stroke:rgb(0,0,0);stroke-width:1;stroke-linecap:round" />
<line x1="397" y1="360" x2="413" y2="360" style="stroke:rgb(0,0,0);stroke-width:1;stroke-linecap:round" />
<line x1="397" y1="404" x2="397" y2="360" style="stroke:rgb(0,0,0);stroke-width:1;stroke-linecap:round" />
<line x1="190" y1="433" x2="254" y2="433" style="stroke:rgb(0,0,0);stroke-width:1;stroke-linecap:round" />
<line x1="190" y1="382" x2="397" y2="382" style="stroke:rgb(0,0,0);stroke-width:1;stroke-linecap:round" />
<line x1="190" y1="433" x2="190" y2="382" style="stroke:rgb(0,0,0);stroke-width:1;stroke-linecap:round" />
<line x1="298" y1="317" x2="393" y2="317" style="stroke:rgb(0,0,0);stroke-width:1;stroke-linecap:round" />
<line x1="298" y1="288" x2="329" y2="288" style="stroke:rgb(0,0,0);stroke-width:1;stroke-linecap:round" />
<line x1="298" y1="317" x2="298" y2="288" style="stroke:rgb(0,0,0);stroke-width:1;stroke-linecap:round" />
<line x1="237" y1="259" x2="249" y2="259" style="stroke:rgb(0,0,0);stroke-width:1;stroke-linecap:round" />
<line x1="237" y1="230" x2="246" y2="230" style="stroke:rgb(0,0,0);stroke-width:1;stroke-linecap:round" />
<line x1="237" y1="259" x2="237" y2="230" style="stroke:rgb(0,0,0);stroke-width:1;stroke-linecap:round" />
<line x1="122" y1="303" x2="298" y2="303" style="stroke:rgb(0,0,0);stroke-width:1;stroke-linecap:round" />
<line x1="122" y1="245" x2="237" y2="245" style="stroke:rgb(0,0,0);stroke-width:1;stroke-linecap:round" />
<line x1="122" y1="303" x2="122" y2="245" style="stroke:rgb(0,0,0);stroke-width:1;stroke-linecap:round" />
<line x1="60" y1="407" x2="190" y2="407" style="stroke:rgb(0,0,0);stroke-width:1;stroke-linecap:round" />
<line x1="60" y1="274" x2="122" y2="274" style="stroke:rgb(0,0,0);stroke-width:1;stroke-linecap:round" />
<line x1="60" y1="407" x2="60" y2="274" style="stroke:rgb(0,0,0);stroke-width:1;stroke-linecap:round" />
<line x1="18" y1="462" x2="237" y2="462" style="stroke:rgb(0,0,0);stroke-width:1;stroke-linecap:round" />
<line x1="18" y1="341" x2="60" y2="341" style="stroke:rgb(0,0,0);stroke-width:1;stroke-linecap:round" />
<line x1="18" y1="462" x2="18" y2="341" style="stroke:rgb(0,0,0);stroke-width:1;stroke-linecap:round" />
<line x1="321" y1="115" x2="324" y2="115" style="stroke:rgb(0,0,0);stroke-width:1;stroke-linecap:round" />
<line x1="321" y1="86" x2="328" y2="86" style="stroke:rgb(0,0,0);stroke-width:1;stroke-linecap:round" />
<line x1="321" y1="115" x2="321" y2="86" style="stroke:rgb(0,0,0);stroke-width:1;stroke-linecap:round" />
<line x1="313" y1="144" x2="315" y2="144" style="stroke:rgb(0,0,0);stroke-width:1;stroke-linecap:round" />
<line x1="313" y1="100" x2="321" y2="100" style="stroke:rgb(0,0,0);stroke-width:1;stroke-linecap:round" />
<line x1="313" y1="144" x2="313" y2="100" style="stroke:rgb(0,0,0);stroke-width:1;stroke-linecap:round" />
<line x1="302" y1="173" x2="321" y2="173" style="stroke:rgb(0,0,0);stroke-width:1;stroke-linecap:round" />
<line x1="302" y1="122" x2="313" y2="122" style="stroke:rgb(0,0,0);stroke-width:1;stroke-linecap:round" />
<line x1="302" y1="173" x2="302" y2="122" style="stroke:rgb(0,0,0);stroke-width:1;stroke-linecap:round" />
<line x1="229" y1="57" x2="367" y2="57" style="stroke:rgb(0,0,0);stroke-width:1;stroke-linecap:round" />
<line x1="229" y1="28" x2="372" y2="28" style="stroke:rgb(0,0,0);stroke-width:1;stroke-linecap:round" />
<line x1="229" y1="57" x2="229" y2="28" style="stroke:rgb(0,0,0);stroke-width:1;stroke-linecap:round" />
<line x1="129" y1="147" x2="302" y2="147" style="stroke:rgb(0,0,0);stroke-width:1;stroke-linecap:round" />
<line x1="129" y1="42" x2="229" y2="42" style="stroke:rgb(0,0,0);stroke-width:1;stroke-linecap:round" />
<line x1="129" y1="147" x2="129" y2="42" style="stroke:rgb(0,0,0);stroke-width:1;stroke-linecap:round" />
<line x1="52" y1="201" x2="297" y2="201" style="stroke:rgb(0,0,0);stroke-width:1;stroke-linecap:round" />
<line x1="52" y1="95" x2="129" y2="95" style="stroke:rgb(0,0,0);stroke-width:1;stroke-linecap:round" />
<line x1="52" y1="201" x2="52" y2="95" style="stroke:rgb(0,0,0);stroke-width:1;stroke-linecap:round" />
<line x1="10" y1="401" x2="18" y2="401" style="stroke:rgb(0,0,0);stroke-width:1;stroke-linecap:round" />
<line x1="10" y1="148" x2="52" y2="148" style="stroke:rgb(0,0,0);stroke-width:1;stroke-linecap:round" />
<line x1="10" y1="401" x2="10" y2="148" style="stroke:rgb(0,0,0);stroke-width:1;stroke-linecap:round" />
<line x1="431" y1="13" x2="490" y2="13" style="stroke:rgb(0,0,0);stroke-width:1;stroke-linecap:round" />
<line x1="431" y1="17" x2="431" y2="9" style="stroke:rgb(0,0,0);stroke-width:1;stroke-linecap:round" />
<line x1="490" y1="17" x2="490" y2="9" style="stroke:rgb(0,0,0);stroke-width:1;stroke-linecap:round" />
<text x="450" y="11" font-family="Times New Roman" font-size="12" fill="rgb(0,0,0)" textLength="21.00">0.02</text>
</svg>
